<svg width="155" height="36" viewBox="0 0 155 36" fill="none" xmlns="http://www.w3.org/2000/svg">
<g clip-path="url(#clip0_410:2362)">
<path d="M21.2521 20.4077L21.2408 20.3963L21.2484 20.4153L21.2521 20.4077Z" fill="#050A12"/>
<path d="M21.2488 20.415L21.2333 20.4382L21.2527 20.4305L21.2488 20.415Z" fill="#050A12"/>
<path d="M58.4057 10.9248C58.189 11.0743 58.0246 11.2835 57.9275 11.5264L54.1912 20.1198C54.0567 20.4598 53.9334 20.7923 53.8175 21.1211C53.7017 21.4499 53.6457 21.648 53.5485 21.9992C53.3654 21.364 53.1487 20.7438 52.8984 20.131L48.9267 11.5264C48.8258 11.3022 48.6764 11.1042 48.4896 10.9435C48.2505 10.7604 47.9553 10.6707 47.6564 10.6894H44.1293L51.6019 26.0082L47.7834 34.3401H51.1237C51.4637 34.3663 51.8037 34.2804 52.0914 34.0935C52.323 33.903 52.5024 33.6564 52.6107 33.3762L62.751 10.6894H59.1604C58.8914 10.6857 58.6261 10.7679 58.4057 10.9248Z" fill="#050A12"/>
<path d="M125.988 23.8786C125.756 23.6507 125.483 23.4676 125.181 23.3406C124.874 23.2061 124.546 23.1351 124.209 23.1313C123.862 23.1276 123.518 23.1986 123.197 23.3331C122.887 23.4601 122.606 23.6469 122.364 23.8786C122.128 24.1065 121.945 24.383 121.825 24.6856C121.568 25.3245 121.568 26.0382 121.825 26.6771C121.949 26.9797 122.132 27.2525 122.364 27.4766C122.599 27.6971 122.875 27.8727 123.178 27.9885C123.499 28.1193 123.843 28.1865 124.191 28.1828C124.531 28.1828 124.867 28.1193 125.181 27.9885C125.483 27.8689 125.756 27.6859 125.988 27.458C126.216 27.2263 126.399 26.9573 126.526 26.6584C126.795 26.0232 126.795 25.3021 126.526 24.6669C126.399 24.3718 126.216 24.1065 125.988 23.8786Z" fill="#050A12"/>
<path d="M117.006 2.95164H112.851V27.9512H117.006V2.95164Z" fill="#050A12"/>
<path d="M154.795 4.618C154.656 4.30415 154.458 4.01646 154.212 3.77733C153.961 3.53821 153.67 3.34766 153.352 3.21315C153.024 3.07491 152.669 3.00392 152.31 3.00392C151.959 3.00392 151.615 3.07491 151.294 3.21315C150.984 3.34766 150.7 3.53821 150.46 3.77733C150.221 4.02019 150.027 4.30415 149.896 4.618C149.754 4.94679 149.683 5.30174 149.687 5.66042C149.683 6.0079 149.754 6.35164 149.896 6.66922C150.169 7.29318 150.67 7.79011 151.294 8.05912C151.615 8.19736 151.959 8.26835 152.31 8.26835C152.669 8.26835 153.024 8.19736 153.352 8.05912C153.987 7.79011 154.496 7.29318 154.783 6.66922C154.929 6.35164 155.004 6.0079 155 5.66042C155.008 5.30174 154.937 4.94679 154.795 4.618Z" fill="#050A12"/>
<path d="M154.391 10.6895H150.236V27.9474H154.391V10.6895Z" fill="#050A12"/>
<path d="M146.373 17.5829C146.354 16.5891 146.167 14.7247 145.854 13.8952C145.558 13.1031 145.103 12.3783 144.512 11.773C143.911 11.1789 143.193 10.7231 142.401 10.4279C141.321 10.0991 140.197 9.94969 139.068 9.98705C137.656 10.0431 136.266 10.3457 134.959 10.88C132.758 11.8104 131.895 12.6884 131.895 12.6884L133.64 15.5765C135.235 14.3473 137.129 13.5739 139.128 13.3348C140.088 13.2414 141.404 13.5365 141.945 14.082C142.902 15.0385 142.726 16.1183 142.794 16.7423C142.794 16.8319 142.82 17.2317 142.842 17.8108C142.719 17.7884 141.8 17.624 141.478 17.5941C140.107 17.4148 138.721 17.3886 137.346 17.5269C131.996 18.2218 130.561 22.2197 131.73 24.9995C132.339 26.4753 133.636 27.5812 135.53 28.1342C137.899 28.8292 141.628 27.8353 143.066 25.7505C143.066 25.7505 143.264 26.8302 143.32 27.1105C143.376 27.4206 143.574 27.6896 143.858 27.8278C144.161 27.9549 144.49 28.0109 144.819 27.9885L146.874 27.9511C146.582 25.8102 146.448 23.6544 146.466 21.4948C146.463 20.5906 146.373 17.5829 146.373 17.5829ZM142.226 23.0529C142.02 23.2658 141.8 23.4638 141.572 23.6544C137.918 26.5762 135.194 25.19 134.932 23.4041C134.719 21.9768 136.124 20.415 138.77 20.1273C140.159 20.0078 141.557 20.09 142.921 20.3739C142.939 21.0128 142.958 21.6742 142.977 22.3056L142.226 23.0529Z" fill="#050A12"/>
<path d="M107.893 13.2788C107.377 12.4979 106.705 11.8328 105.92 11.3247C105.143 10.8352 104.265 10.5214 103.353 10.4056C102.333 10.2412 101.287 10.3234 100.304 10.6484C99.389 10.9809 98.5259 11.4555 97.7525 12.0458V2.95539H93.7211V27.9512H96.3365C96.5719 27.9624 96.8072 27.8989 97.0015 27.7644C97.1846 27.6037 97.3079 27.3833 97.3453 27.1441L97.5321 25.9821L97.618 25.5263C97.8048 25.758 97.9916 25.9821 98.1897 26.1914C98.4886 26.5015 98.8174 26.7817 99.1761 27.0208C99.5459 27.2637 99.9457 27.4617 100.36 27.6149C101.821 28.138 103.413 28.1679 104.893 27.6934C105.808 27.372 106.63 26.8303 107.288 26.1204C107.986 25.3507 108.521 24.4503 108.857 23.4676C109.249 22.343 109.462 21.1623 109.481 19.9705C109.533 18.6964 109.413 17.4186 109.126 16.1744C108.887 15.1432 108.468 14.1643 107.893 13.2788ZM98.9257 24.114C98.3989 23.8413 98.1411 23.4265 97.76 22.8736V14.8405C98.2457 14.3623 98.8099 13.97 99.4264 13.6823C107.919 10.6484 107.302 28.4219 98.9183 24.114H98.9257Z" fill="#050A12"/>
<path d="M42.6049 20.7849C42.306 20.3216 41.9212 19.9218 41.4653 19.608C41.3757 19.5445 41.2822 19.4884 41.1888 19.4286C40.7778 19.1522 40.3332 18.9205 39.8699 18.7449C38.6556 18.2965 37.4152 17.9229 36.1561 17.624C35.5881 17.482 35.0314 17.3064 34.4897 17.0897C34.0413 16.9179 33.6266 16.675 33.2604 16.3649C32.9541 16.1033 32.771 15.726 32.7448 15.3262C32.8196 14.7919 33.1446 14.3211 33.6229 14.0671C34.5196 13.4394 36.5895 13.3759 37.7328 13.6523C38.1662 13.7457 38.5959 13.8728 39.0143 14.026C39.3879 14.1605 39.7055 14.28 39.9858 14.3996C40.3407 14.5603 40.7405 14.5789 41.1066 14.4519C41.2411 14.3734 41.357 14.2688 41.4429 14.1381L42.433 12.2699C41.611 11.6273 40.6807 11.1303 39.6906 10.8016C37.3816 10.0842 34.9156 10.0543 32.5916 10.7156C31.7472 10.9734 30.9551 11.3807 30.2565 11.9224C29.6736 12.3783 29.2028 12.9649 28.8852 13.6337C28.5863 14.2763 28.4444 14.9787 28.4668 15.6886C28.4668 15.711 28.4668 15.7335 28.4668 15.7559C28.4668 15.7783 28.4668 15.8866 28.4668 15.9502C28.4705 16.5891 28.6274 17.213 28.9338 17.7735C29.2215 18.2704 29.6101 18.7038 30.0771 19.0438C30.2714 19.1783 30.4732 19.3053 30.6824 19.4174C31 19.6117 31.3362 19.7799 31.6837 19.9181C32.2965 20.1647 32.9167 20.3777 33.5519 20.557C34.187 20.7363 34.8185 20.9045 35.42 21.0539C35.9917 21.1922 36.5521 21.3715 37.0976 21.5882C37.5497 21.7638 37.9644 22.0179 38.3306 22.3355C38.6482 22.6232 38.835 23.0267 38.8462 23.4564C38.8238 23.6693 38.7677 23.8748 38.6743 24.0691C38.5286 24.368 38.3082 24.6258 38.0317 24.8164C37.2246 25.3058 36.2906 25.5487 35.349 25.5076C34.6989 25.53 34.0451 25.4628 33.4136 25.3058C32.6178 25.0817 31.8444 24.7715 31.1083 24.3904C30.8692 24.2709 30.6077 24.2074 30.3387 24.2111C30.1145 24.2036 29.894 24.2447 29.6885 24.3381C29.5167 24.4278 29.3635 24.5548 29.2477 24.7118L28.265 26.6061C28.6611 26.89 29.0833 27.1403 29.5241 27.3533C30.0771 27.6223 30.6525 27.8502 31.2428 28.0296C31.8743 28.2239 32.5206 28.3696 33.1745 28.4705C33.8545 28.5713 34.5382 28.6199 35.2257 28.6124C36.3914 28.6162 37.5534 28.4555 38.6743 28.1342C39.5673 27.8764 40.4042 27.4542 41.144 26.8863C41.7754 26.3894 42.2836 25.7467 42.6198 25.0181C42.9486 24.2821 43.1056 23.475 43.0719 22.668C43.0719 22.668 43.0719 22.6381 43.0719 22.6194C43.0719 22.6008 43.0719 22.5036 43.0719 22.4438C43.0645 21.861 42.9038 21.2856 42.6049 20.7849Z" fill="#050A12"/>
<path d="M87.3022 11.2013C86.3195 10.5998 85.1874 10.2822 84.0329 10.2934C82.9083 10.3008 81.8098 10.6334 80.8683 11.2499C80.8683 11.2499 80.461 11.5264 80.2966 11.6571C79.6502 12.2026 79.0749 12.8341 78.5854 13.5253C77.3748 9.85623 72.8128 9.32941 69.9919 11.6571C69.6407 11.9448 69.3119 12.2587 69.0056 12.5912L68.7291 11.2984C68.5834 10.8202 68.1275 10.5101 67.6306 10.5512H64.9965V27.9511H69.2858V15.1954C69.7117 14.7059 70.2161 14.2875 70.7803 13.9624C71.9236 13.2824 74.0757 13.3571 74.8902 14.3099C75.3722 14.8442 75.7346 15.7035 75.7346 17V27.9511H79.4709V15.1954C79.8968 14.7059 80.4012 14.2875 80.9654 13.9624C82.105 13.2824 84.2608 13.3571 85.0753 14.3099C85.5573 14.8442 85.9197 15.7035 85.9197 17V27.9511H90.2426V18.2741C90.2426 15.6923 89.9475 14.3435 89.3534 13.3609C88.8602 12.4828 88.154 11.7393 87.3022 11.2013Z" fill="#050A12"/>
<path opacity="0.65" d="M21.2408 20.3963L8.1264 10.2037L1.37866 4.95798L5.36902 17.2168L8.45893 26.7181L11.4181 35.8011L21.2333 20.4374L21.2483 20.415L21.2408 20.3963Z" fill="#050A12"/>
<path opacity="0.8" d="M21.2408 20.3964L12.1392 0L8.12643 10.2038L5.36905 17.2168L0 30.8767L8.45896 26.7182L21.2333 20.4375L21.2483 20.4151L21.2408 20.3964Z" fill="#050A12"/>
</g>
<defs>
<clipPath id="clip0_410:2362">
<rect width="155" height="35.8011" fill="white"/>
</clipPath>
</defs>
</svg>
